<?xml version="1.0" encoding="UTF-8"?>
<!DOCTYPE svg PUBLIC "-//W3C//DTD SVG 1.1//EN" 
"http://www.w3.org/Graphics/SVG/1.1/DTD/svg11.dtd">

<svg version="1.1"
   width="126px"
   height="126px"
xmlns="http://www.w3.org/2000/svg">
    <rect width="100%" height="100%" fill="white"/>

  <line x1="39.6519" y1="101.9420" x2="46.0053" y2="82.9470" stroke="#595959"
     style="stroke-width:2;stroke-miterlimit:4;stroke-dasharray:1,1;stroke-dashoffset:0" />
  <line x1="53.0174" y1="24.2186" x2="72.9826" y2="24.2186" stroke="#595959"
     style="stroke-width:2;stroke-miterlimit:4;stroke-dasharray:1,1;stroke-dashoffset:0" />
  <line x1="72.9826" y1="24.2186" x2="79.9398" y2="42.9443" stroke="#595959"
     style="stroke-width:2;stroke-miterlimit:4;stroke-dasharray:1,1;stroke-dashoffset:0" />
  <line x1="79.8325" y1="62.9481" x2="79.9947" y2="82.9470" stroke="#595959"
     style="stroke-width:2;stroke-miterlimit:4;stroke-dasharray:1,1;stroke-dashoffset:0" />
  <line x1="79.9947" y1="82.9470" x2="86.3481" y2="101.9420" stroke="#595959"
     style="stroke-width:2;stroke-miterlimit:4;stroke-dasharray:1,1;stroke-dashoffset:0" />
  <line x1="46.0602" y1="42.9443" x2="79.9398" y2="42.9443" stroke="#000000" stroke-width="1.0" />
  <circle cx="63.0000" cy="42.9443" r="2.25" stroke="#000000" stroke-width="1.0" fill="#000000"/>
  <line x1="46.0053" y1="82.9470" x2="46.1675" y2="62.9481" stroke="#000000" stroke-width="1.0" />
  <rect
     style="fill:#ffffff;fill-opacity:1;fill-rule:nonzero;stroke:none"
     width="2"
     height="2"
     x="45.5864"
     y="71.9475"
     transform="rotate(-89.5353 46.0864 72.9475)" /> 
  <path
     style="fill:none;stroke:#000000;stroke-width:1px;stroke-linecap:butt;stroke-linejoin:miter;stroke-opacity:1"
     d="m 46.0864,70.9475 2,2 -2,2 m -2.370121,-4 2,2 -2,2"
     transform="rotate(-89.5353 46.0864 72.9475)"/>
  <line x1="46.0053" y1="84.1970" x2="79.9947" y2="84.1970" stroke="#000000" stroke-width="1.0" />
  <line x1="46.0053" y1="81.6970" x2="79.9947" y2="81.6970" stroke="#000000" stroke-width="1.0" />
  <line x1="46.1675" y1="62.9481" x2="46.0602" y2="42.9443" stroke="#000000" stroke-width="1.0" />
  <rect
     style="fill:#ffffff;fill-opacity:1;fill-rule:nonzero;stroke:none"
     width="2"
     height="2"
     x="45.6139"
     y="51.9462"
     transform="rotate(269.6926 46.1139 52.9462)" /> 
  <path
     style="fill:none;stroke:#000000;stroke-width:1px;stroke-linecap:butt;stroke-linejoin:miter;stroke-opacity:1"
     d="m 46.1139,50.9462 2,2 -2,2 m -2.370121,-4 2,2 -2,2"
     transform="rotate(269.6926 46.1139 52.9462)"/>
  <line x1="46.1675" y1="64.1981" x2="79.8325" y2="64.1981" stroke="#000000" stroke-width="1.0" />
  <line x1="46.1675" y1="61.6981" x2="79.8325" y2="61.6981" stroke="#000000" stroke-width="1.0" />
  <line x1="46.0602" y1="42.9443" x2="53.0174" y2="24.2186" stroke="#000000" stroke-width="1.0" />
  <rect
     style="fill:#ffffff;fill-opacity:1;fill-rule:nonzero;stroke:none"
     width="2"
     height="2"
     x="49.0388"
     y="32.5815"
     transform="rotate(-69.6183 49.5388 33.5815)" /> 
  <path
     style="fill:none;stroke:#000000;stroke-width:1px;stroke-linecap:butt;stroke-linejoin:miter;stroke-opacity:1"
     d="m 49.5388,31.5815 2,2 -2,2 m -2.370121,-4 2,2 -2,2"
     transform="rotate(-69.6183 49.5388 33.5815)"/>
  <line x1="79.9398" y1="42.9443" x2="79.8325" y2="62.9481" stroke="#000000" stroke-width="1.0" />
  <rect
     style="fill:#ffffff;fill-opacity:1;fill-rule:nonzero;stroke:none"
     width="2"
     height="2"
     x="79.3861"
     y="51.9462"
     transform="rotate(90.3074 79.8861 52.9462)" /> 
  <path
     style="fill:none;stroke:#000000;stroke-width:1px;stroke-linecap:butt;stroke-linejoin:miter;stroke-opacity:1"
     d="m 79.8861,50.9462 2,2 -2,2 m -2.370121,-4 2,2 -2,2"
     transform="rotate(90.3074 79.8861 52.9462)"/>
<circle cx="39.6519" cy="101.9420" r="5.0" stroke="#595959" stroke-width="1.0" fill="#ffffff"/>
<text x="39.6519" y="104.6420" text-anchor="middle" font-family="Helvetica" font-size="7.5" fill="#000000" >G5</text>
<circle cx="46.0053" cy="82.9470" r="5.0" stroke="#595959" stroke-width="1.0" fill="#ffffff"/>
<text x="46.0053" y="85.6470" text-anchor="middle" font-family="Helvetica" font-size="7.5" fill="#000000" >C</text>
<circle cx="46.1675" cy="62.9481" r="5.0" stroke="#595959" stroke-width="1.0" fill="#ffffff"/>
<text x="46.1675" y="65.6481" text-anchor="middle" font-family="Helvetica" font-size="7.5" fill="#000000" >C</text>
<circle cx="46.0602" cy="42.9443" r="5.0" stroke="#595959" stroke-width="1.0" fill="#ffffff"/>
<text x="46.0602" y="45.6443" text-anchor="middle" font-family="Helvetica" font-size="7.5" fill="#000000" >U</text>
<circle cx="53.0174" cy="24.2186" r="5.0" stroke="#595959" stroke-width="1.0" fill="#ffffff"/>
<text x="53.0174" y="26.9186" text-anchor="middle" font-family="Helvetica" font-size="7.5" fill="#000000" >U</text>
<circle cx="72.9826" cy="24.2186" r="5.0" stroke="#595959" stroke-width="1.0" fill="#ffffff"/>
<text x="72.9826" y="26.9186" text-anchor="middle" font-family="Helvetica" font-size="7.5" fill="#000000" >C</text>
<circle cx="79.9398" cy="42.9443" r="5.0" stroke="#595959" stroke-width="1.0" fill="#ffffff"/>
<text x="79.9398" y="45.6443" text-anchor="middle" font-family="Helvetica" font-size="7.5" fill="#000000" >G</text>
<circle cx="79.8325" cy="62.9481" r="5.0" stroke="#595959" stroke-width="1.0" fill="#ffffff"/>
<text x="79.8325" y="65.6481" text-anchor="middle" font-family="Helvetica" font-size="7.5" fill="#000000" >G</text>
<circle cx="79.9947" cy="82.9470" r="5.0" stroke="#595959" stroke-width="1.0" fill="#ffffff"/>
<text x="79.9947" y="85.6470" text-anchor="middle" font-family="Helvetica" font-size="7.5" fill="#000000" >G</text>
<circle cx="86.3481" cy="101.9420" r="5.0" stroke="#595959" stroke-width="1.0" fill="#ffffff"/>
<text x="86.3481" y="104.6420" text-anchor="middle" font-family="Helvetica" font-size="7.5" fill="#000000" >C3</text>
</svg>