<?xml version="1.0" encoding="UTF-8"?>
<!DOCTYPE svg PUBLIC "-//W3C//DTD SVG 1.1//EN" 
"http://www.w3.org/Graphics/SVG/1.1/DTD/svg11.dtd">

<svg version="1.1"
   width="126px"
   height="126px"
xmlns="http://www.w3.org/2000/svg">
    <rect width="100%" height="100%" fill="white"/>

  <line x1="53.7033" y1="29.8426" x2="72.6876" y2="25.6931" stroke="#595959"
     style="stroke-width:2;stroke-miterlimit:4;stroke-dasharray:1,1;stroke-dashoffset:0" />
  <line x1="39.3734" y1="41.5033" x2="85.8299" y2="38.7134" stroke="#eb9d00" stroke-width="1.0" />
  <path d="M 56.8516 42.3584 L 56.8516 37.8584 L 61.3516 37.8584 L 61.3516 42.3584 z" style="stroke:#eb9d00;stroke-width:1.0" fill="#eb9d00" 
    transform="rotate(176.5632 62.6016 40.1084)"/>
  <path d="M 64.3516 42.3584 L 64.3516 37.8584 L 68.3516 40.1084 z" style="stroke:#eb9d00;stroke-width:1.0" fill="#eb9d00"
    transform="rotate(176.5632 62.6016 40.1084)"/>
  <line x1="39.5652" y1="44.6976" x2="86.0217" y2="41.9076" stroke="#f1b400" stroke-width="1.0" />
  <circle cx="62.7935" cy="43.3026" r="2.25" stroke="#f1b400" stroke-width="1.0" fill="#f1b400"/>
  <line x1="43.6949" y1="103.0944" x2="42.3769" y2="82.7778" stroke="#000000" stroke-width="1.0" />
  <rect
     style="fill:#ffffff;fill-opacity:1;fill-rule:nonzero;stroke:none"
     width="2"
     height="2"
     x="42.5359"
     y="91.9361"
     transform="rotate(266.2881 43.0359 92.9361)" /> 
  <path
     style="fill:none;stroke:#000000;stroke-width:1px;stroke-linecap:butt;stroke-linejoin:miter;stroke-opacity:1"
     d="m 43.0359,90.9361 2,2 -2,2 m -2.370121,-4 2,2 -2,2"
     transform="rotate(266.2881 43.0359 92.9361)"/>
  <line x1="43.7718" y1="104.3420" x2="84.2447" y2="101.8499" stroke="#37004b" stroke-width="1.0" />
  <line x1="43.6181" y1="101.8468" x2="84.0910" y2="99.3546" stroke="#37004b" stroke-width="1.0" />
  <line x1="42.3769" y1="82.7778" x2="41.2802" y2="62.9851" stroke="#a0109e" stroke-width="1.0" />
  <rect
     style="fill:#ffffff;fill-opacity:1;fill-rule:nonzero;stroke:none"
     width="2"
     height="2"
     x="41.3285"
     y="71.8815"
     transform="rotate(266.8285 41.8285 72.8815)" /> 
  <path
     style="fill:none;stroke:#a0109e;stroke-width:1px;stroke-linecap:butt;stroke-linejoin:miter;stroke-opacity:1"
     d="m 41.8285,70.8815 2,2 -2,2 m -2.370121,-4 2,2 -2,2"
     transform="rotate(266.8285 41.8285 72.8815)"/>
  <line x1="42.4470" y1="84.0259" x2="82.6493" y2="81.7662" stroke="#37004b" stroke-width="1.0" />
  <line x1="42.3067" y1="81.5298" x2="82.5090" y2="79.2701" stroke="#37004b" stroke-width="1.0" />
  <line x1="41.2802" y1="62.9851" x2="39.4693" y2="43.1005" stroke="#000000" stroke-width="1.0" />
  <rect
     style="fill:#ffffff;fill-opacity:1;fill-rule:nonzero;stroke:none"
     width="2"
     height="2"
     x="39.8747"
     y="52.0428"
     transform="rotate(264.7966 40.3747 53.0428)" /> 
  <path
     style="fill:none;stroke:#000000;stroke-width:1px;stroke-linecap:butt;stroke-linejoin:miter;stroke-opacity:1"
     d="m 40.3747,51.0428 2,2 -2,2 m -2.370121,-4 2,2 -2,2"
     transform="rotate(264.7966 40.3747 53.0428)"/>
  <line x1="41.3358" y1="64.2339" x2="84.1706" y2="62.3243" stroke="#33003e" stroke-width="1.0" />
  <line x1="41.2245" y1="61.7363" x2="84.0593" y2="59.8268" stroke="#33003e" stroke-width="1.0" />
  <line x1="41.2802" y1="62.9851" x2="82.5791" y2="80.5181" stroke="#df7200" stroke-width="1.0" />
  <rect
     style="fill:#ffffff;stroke:none"
     width="5.5"
     height="2"
     x="59.1797"
     y="70.7516" 
     transform="rotate(23.0031 61.9297 71.7516)"    /> 
  <path
     style="fill:none;stroke:#df7200;stroke-width:1px;stroke-linecap:butt;stroke-linejoin:miter;stroke-opacity:1"
    d="m 62.6797,69.7516 2,2 -2,2 m -1.5,-4 -2,2 2,2" transform="rotate(23.0031 61.9297 71.7516)"/>
  <line x1="39.4693" y1="43.1005" x2="53.7033" y2="29.8426" stroke="#e89000" stroke-width="1.0" />
  <rect
     style="fill:#ffffff;fill-opacity:1;fill-rule:nonzero;stroke:none"
     width="2"
     height="2"
     x="46.0863"
     y="35.4715"
     transform="rotate(-42.9665 46.5863 36.4715)" /> 
  <path
     style="fill:none;stroke:#e89000;stroke-width:1px;stroke-linecap:butt;stroke-linejoin:miter;stroke-opacity:1"
     d="m 46.5863,34.4715 2,2 -2,2 m -2.370121,-4 2,2 -2,2"
     transform="rotate(-42.9665 46.5863 36.4715)"/>
  <line x1="53.7033" y1="29.8426" x2="85.9258" y2="40.3105" stroke="#e58400" stroke-width="1.0" />
  <rect
     style="fill:#ffffff;fill-opacity:1;fill-rule:nonzero;stroke:none"
     width="2"
     height="2"
     x="69.3145"
     y="34.0766"
     transform="rotate(17.9971 69.8145 35.0766)" /> 
  <path
     style="fill:none;stroke:#e58400;stroke-width:1px;stroke-linecap:butt;stroke-linejoin:miter;stroke-opacity:1"
     d="m 69.8145,33.0766 2,2 -2,2 m -2.370121,-4 2,2 -2,2"
     transform="rotate(17.9971 69.8145 35.0766)"/>
  <line x1="72.6876" y1="25.6931" x2="85.9258" y2="40.3105" stroke="#eda600" stroke-width="1.0" />
  <rect
     style="fill:#ffffff;fill-opacity:1;fill-rule:nonzero;stroke:none"
     width="2"
     height="2"
     x="78.8067"
     y="32.0018"
     transform="rotate(47.8347 79.3067 33.0018)" /> 
  <path
     style="fill:none;stroke:#eda600;stroke-width:1px;stroke-linecap:butt;stroke-linejoin:miter;stroke-opacity:1"
     d="m 79.3067,31.0018 2,2 -2,2 m -2.370121,-4 2,2 -2,2"
     transform="rotate(47.8347 79.3067 33.0018)"/>
  <line x1="85.9258" y1="40.3105" x2="84.1149" y2="61.0755" stroke="#ce4700" stroke-width="1.0" />
  <rect
     style="fill:#ffffff;fill-opacity:1;fill-rule:nonzero;stroke:none"
     width="2"
     height="2"
     x="84.5204"
     y="49.6930"
     transform="rotate(94.9839 85.0204 50.6930)" /> 
  <path
     style="fill:none;stroke:#ce4700;stroke-width:1px;stroke-linecap:butt;stroke-linejoin:miter;stroke-opacity:1"
     d="m 85.0204,48.6930 2,2 -2,2 m -2.370121,-4 2,2 -2,2"
     transform="rotate(94.9839 85.0204 50.6930)"/>
  <line x1="84.1149" y1="61.0755" x2="82.5791" y2="80.5181" stroke="#db6700" stroke-width="1.0" />
  <rect
     style="fill:#ffffff;fill-opacity:1;fill-rule:nonzero;stroke:none"
     width="2"
     height="2"
     x="82.8470"
     y="69.7968"
     transform="rotate(94.5165 83.3470 70.7968)" /> 
  <path
     style="fill:none;stroke:#db6700;stroke-width:1px;stroke-linecap:butt;stroke-linejoin:miter;stroke-opacity:1"
     d="m 83.3470,68.7968 2,2 -2,2 m -2.370121,-4 2,2 -2,2"
     transform="rotate(94.5165 83.3470 70.7968)"/>
  <line x1="82.5791" y1="80.5181" x2="84.1679" y2="100.6023" stroke="#000000" stroke-width="1.0" />
  <rect
     style="fill:#ffffff;fill-opacity:1;fill-rule:nonzero;stroke:none"
     width="2"
     height="2"
     x="82.8735"
     y="89.5602"
     transform="rotate(85.4771 83.3735 90.5602)" /> 
  <path
     style="fill:none;stroke:#000000;stroke-width:1px;stroke-linecap:butt;stroke-linejoin:miter;stroke-opacity:1"
     d="m 83.3735,88.5602 2,2 -2,2 m -2.370121,-4 2,2 -2,2"
     transform="rotate(85.4771 83.3735 90.5602)"/>
<circle cx="43.6949" cy="103.0944" r="5.0" stroke="#595959" stroke-width="1.0" fill="#ffffff"/>
<text x="43.6949" y="105.7944" text-anchor="middle" font-family="Helvetica" font-size="7.5" fill="#000000" >G</text>
<circle cx="42.3769" cy="82.7778" r="5.0" stroke="#595959" stroke-width="1.0" fill="#ffffff"/>
<text x="42.3769" y="85.4778" text-anchor="middle" font-family="Helvetica" font-size="7.5" fill="#000000" >C</text>
<circle cx="41.2802" cy="62.9851" r="5.0" stroke="#595959" stroke-width="1.0" fill="#ffffff"/>
<text x="41.2802" y="65.6851" text-anchor="middle" font-family="Helvetica" font-size="7.5" fill="#000000" >C</text>
<circle cx="39.4693" cy="43.1005" r="5.0" stroke="#595959" stroke-width="1.0" fill="#ffffff"/>
<text x="39.4693" y="45.8005" text-anchor="middle" font-family="Helvetica" font-size="7.5" fill="#000000" >U</text>
<circle cx="53.7033" cy="29.8426" r="5.0" stroke="#595959" stroke-width="1.0" fill="#ffffff"/>
<text x="53.7033" y="32.5426" text-anchor="middle" font-family="Helvetica" font-size="7.5" fill="#000000" >U</text>
<circle cx="72.6876" cy="25.6931" r="5.0" stroke="#595959" stroke-width="1.0" fill="#ffffff"/>
<text x="72.6876" y="28.3931" text-anchor="middle" font-family="Helvetica" font-size="7.5" fill="#000000" >C</text>
<circle cx="85.9258" cy="40.3105" r="5.0" stroke="#595959" stroke-width="1.0" fill="#ffffff"/>
<text x="85.9258" y="43.0105" text-anchor="middle" font-family="Helvetica" font-size="7.5" fill="#000000" >G</text>
<circle cx="84.1149" cy="61.0755" r="5.0" stroke="#595959" stroke-width="1.0" fill="#ffffff"/>
<text x="84.1149" y="63.7755" text-anchor="middle" font-family="Helvetica" font-size="7.5" fill="#000000" >G</text>
<circle cx="82.5791" cy="80.5181" r="5.0" stroke="#595959" stroke-width="1.0" fill="#ffffff"/>
<text x="82.5791" y="83.2181" text-anchor="middle" font-family="Helvetica" font-size="7.5" fill="#000000" >G</text>
<circle cx="84.1679" cy="100.6023" r="5.0" stroke="#595959" stroke-width="1.0" fill="#ffffff"/>
<text x="84.1679" y="103.3023" text-anchor="middle" font-family="Helvetica" font-size="7.5" fill="#000000" >C</text>
</svg>