<?xml version="1.0" encoding="UTF-8"?>
<!DOCTYPE svg PUBLIC "-//W3C//DTD SVG 1.1//EN" 
"http://www.w3.org/Graphics/SVG/1.1/DTD/svg11.dtd">

<svg version="1.1"
   width="126px"
   height="126px"
xmlns="http://www.w3.org/2000/svg">
    <rect width="100%" height="100%" fill="white"/>

  <line x1="47.9138" y1="41.9389" x2="47.6066" y2="21.9675" stroke="#595959"
     style="stroke-width:2;stroke-miterlimit:4;stroke-dasharray:1,1;stroke-dashoffset:0" />
  <line x1="47.6066" y1="21.9675" x2="65.5591" y2="30.6085" stroke="#595959"
     style="stroke-width:2;stroke-miterlimit:4;stroke-dasharray:1,1;stroke-dashoffset:0" />
  <line x1="65.5591" y1="30.6085" x2="81.6796" y2="42.3628" stroke="#595959"
     style="stroke-width:2;stroke-miterlimit:4;stroke-dasharray:1,1;stroke-dashoffset:0" />
  <line x1="47.8107" y1="102.0842" x2="47.7808" y2="82.0592" stroke="#000000" stroke-width="1.0" />
  <rect
     style="fill:#ffffff;fill-opacity:1;fill-rule:nonzero;stroke:none"
     width="2"
     height="2"
     x="47.2958"
     y="91.0717"
     transform="rotate(269.9145 47.7958 92.0717)" /> 
  <path
     style="fill:none;stroke:#000000;stroke-width:1px;stroke-linecap:butt;stroke-linejoin:miter;stroke-opacity:1"
     d="m 47.7958,90.0717 2,2 -2,2 m -2.370121,-4 2,2 -2,2"
     transform="rotate(269.9145 47.7958 92.0717)"/>
  <line x1="47.8020" y1="103.3342" x2="81.1325" y2="103.5667" stroke="#3c0057" stroke-width="1.0" />
  <line x1="47.8195" y1="100.8342" x2="81.1500" y2="101.0667" stroke="#3c0057" stroke-width="1.0" />
  <line x1="47.7808" y1="82.0592" x2="47.8396" y2="62.0098" stroke="#9d0eb1" stroke-width="1.0" />
  <rect
     style="fill:#ffffff;fill-opacity:1;fill-rule:nonzero;stroke:none"
     width="2"
     height="2"
     x="47.3102"
     y="71.0345"
     transform="rotate(-89.8322 47.8102 72.0345)" /> 
  <path
     style="fill:none;stroke:#9d0eb1;stroke-width:1px;stroke-linecap:butt;stroke-linejoin:miter;stroke-opacity:1"
     d="m 47.8102,70.0345 2,2 -2,2 m -2.370121,-4 2,2 -2,2"
     transform="rotate(-89.8322 47.8102 72.0345)"/>
  <line x1="47.7711" y1="83.3092" x2="81.1614" y2="83.5693" stroke="#33003e" stroke-width="1.0" />
  <line x1="47.7906" y1="80.8093" x2="81.1809" y2="81.0694" stroke="#33003e" stroke-width="1.0" />
  <line x1="47.8396" y1="62.0098" x2="47.9138" y2="41.9389" stroke="#400062" stroke-width="1.0" />
  <rect
     style="fill:#ffffff;fill-opacity:1;fill-rule:nonzero;stroke:none"
     width="2"
     height="2"
     x="47.3767"
     y="50.9743"
     transform="rotate(-89.7880 47.8767 51.9743)" /> 
  <path
     style="fill:none;stroke:#400062;stroke-width:1px;stroke-linecap:butt;stroke-linejoin:miter;stroke-opacity:1"
     d="m 47.8767,49.9743 2,2 -2,2 m -2.370121,-4 2,2 -2,2"
     transform="rotate(-89.7880 47.8767 51.9743)"/>
  <line x1="47.8276" y1="63.2598" x2="81.4853" y2="63.5829" stroke="#2d0032" stroke-width="1.0" />
  <line x1="47.8516" y1="60.7599" x2="81.5093" y2="61.0830" stroke="#2d0032" stroke-width="1.0" />
  <line x1="47.9138" y1="41.9389" x2="65.5591" y2="30.6085" stroke="#c93d00" stroke-width="1.0" />
  <rect
     style="fill:#ffffff;fill-opacity:1;fill-rule:nonzero;stroke:none"
     width="2"
     height="2"
     x="56.2365"
     y="35.2737"
     transform="rotate(-32.7052 56.7365 36.2737)" /> 
  <path
     style="fill:none;stroke:#c93d00;stroke-width:1px;stroke-linecap:butt;stroke-linejoin:miter;stroke-opacity:1"
     d="m 56.7365,34.2737 2,2 -2,2 m -2.370121,-4 2,2 -2,2"
     transform="rotate(-32.7052 56.7365 36.2737)"/>
  <line x1="47.9138" y1="41.9389" x2="81.6796" y2="42.3628" stroke="#400062" stroke-width="1.0" />
  <circle cx="68.2967" cy="42.1508" r="2.25" stroke="#400062" stroke-width="1.0" fill="#ffffff"
    transform="rotate(0.7193 64.7967 42.1508)" />
  <path d="M 63.0467 44.4008 L 63.0467 39.9008 L 59.0467 42.1508 z" style="stroke:#400062;stroke-width:1.0" fill="#ffffff" 
    transform="rotate(0.7193 64.7967 42.1508)"/>
  <line x1="81.6796" y1="42.3628" x2="81.4973" y2="62.3330" stroke="#ca4000" stroke-width="1.0" />
  <rect
     style="fill:#ffffff;stroke:none"
     width="5.5"
     height="2"
     x="78.8385"
     y="51.3479" 
     transform="rotate(90.5228 81.5885 52.3479)"    /> 
  <path
     style="fill:none;stroke:#ca4000;stroke-width:1px;stroke-linecap:butt;stroke-linejoin:miter;stroke-opacity:1"
    d="m 82.3385,50.3479 2,2 -2,2 m -1.5,-4 -2,2 2,2" transform="rotate(90.5228 81.5885 52.3479)"/>
  <line x1="81.4973" y1="62.3330" x2="81.1711" y2="82.3194" stroke="#8806f9" stroke-width="1.0" />
  <rect
     style="fill:#ffffff;fill-opacity:1;fill-rule:nonzero;stroke:none"
     width="2"
     height="2"
     x="80.8342"
     y="71.3262"
     transform="rotate(90.9350 81.3342 72.3262)" /> 
  <path
     style="fill:none;stroke:#8806f9;stroke-width:1px;stroke-linecap:butt;stroke-linejoin:miter;stroke-opacity:1"
     d="m 81.3342,70.3262 2,2 -2,2 m -2.370121,-4 2,2 -2,2"
     transform="rotate(90.9350 81.3342 72.3262)"/>
  <line x1="81.1711" y1="82.3194" x2="81.1412" y2="102.3167" stroke="#000000" stroke-width="1.0" />
  <rect
     style="fill:#ffffff;fill-opacity:1;fill-rule:nonzero;stroke:none"
     width="2"
     height="2"
     x="80.6562"
     y="91.3180"
     transform="rotate(90.0857 81.1562 92.3180)" /> 
  <path
     style="fill:none;stroke:#000000;stroke-width:1px;stroke-linecap:butt;stroke-linejoin:miter;stroke-opacity:1"
     d="m 81.1562,90.3180 2,2 -2,2 m -2.370121,-4 2,2 -2,2"
     transform="rotate(90.0857 81.1562 92.3180)"/>
<circle cx="47.8107" cy="102.0842" r="5.0" stroke="#595959" stroke-width="1.0" fill="#ffffff"/>
<text x="47.8107" y="104.7842" text-anchor="middle" font-family="Helvetica" font-size="7.5" fill="#000000" >G</text>
<circle cx="47.7808" cy="82.0592" r="5.0" stroke="#595959" stroke-width="1.0" fill="#ffffff"/>
<text x="47.7808" y="84.7592" text-anchor="middle" font-family="Helvetica" font-size="7.5" fill="#000000" >C</text>
<circle cx="47.8396" cy="62.0098" r="5.0" stroke="#595959" stroke-width="1.0" fill="#ffffff"/>
<text x="47.8396" y="64.7098" text-anchor="middle" font-family="Helvetica" font-size="7.5" fill="#000000" >C</text>
<circle cx="47.9138" cy="41.9389" r="5.0" stroke="#595959" stroke-width="1.0" fill="#ffffff"/>
<text x="47.9138" y="44.6389" text-anchor="middle" font-family="Helvetica" font-size="7.5" fill="#000000" >U</text>
<circle cx="47.6066" cy="21.9675" r="5.0" stroke="#595959" stroke-width="1.0" fill="#ffffff"/>
<text x="47.6066" y="24.6675" text-anchor="middle" font-family="Helvetica" font-size="7.5" fill="#000000" >U</text>
<circle cx="65.5591" cy="30.6085" r="5.0" stroke="#595959" stroke-width="1.0" fill="#ffffff"/>
<text x="65.5591" y="33.3085" text-anchor="middle" font-family="Helvetica" font-size="7.5" fill="#000000" >C</text>
<circle cx="81.6796" cy="42.3628" r="5.0" stroke="#595959" stroke-width="1.0" fill="#ffffff"/>
<text x="81.6796" y="45.0628" text-anchor="middle" font-family="Helvetica" font-size="7.5" fill="#000000" >G</text>
<circle cx="81.4973" cy="62.3330" r="5.0" stroke="#595959" stroke-width="1.0" fill="#ffffff"/>
<text x="81.4973" y="65.0330" text-anchor="middle" font-family="Helvetica" font-size="7.5" fill="#000000" >G</text>
<circle cx="81.1711" cy="82.3194" r="5.0" stroke="#595959" stroke-width="1.0" fill="#ffffff"/>
<text x="81.1711" y="85.0194" text-anchor="middle" font-family="Helvetica" font-size="7.5" fill="#000000" >G</text>
<circle cx="81.1412" cy="102.3167" r="5.0" stroke="#595959" stroke-width="1.0" fill="#ffffff"/>
<text x="81.1412" y="105.0167" text-anchor="middle" font-family="Helvetica" font-size="7.5" fill="#000000" >C</text>
</svg>